<svg width="3529" height="1039" viewBox="0 0 3529 1039" fill="none" xmlns="http://www.w3.org/2000/svg">
<path d="M598 1038.5L0 1.5L238.5 0.5L598 622.5L958 0L1197 0.5L598 1038.5Z" fill="#54C5F8"/>
<path d="M598 622.5L238.5 0.5H460L598 239.5L736 0.5L958 0L598 622.5Z" fill="#01579B"/>
<path d="M1477.38 565.281H1312.14V802H1263.7V233.25H1448.47C1509.15 233.25 1556.54 247.964 1590.66 277.391C1624.77 306.818 1641.83 347.964 1641.83 400.828C1641.83 437.286 1631.15 469.448 1609.8 497.312C1588.44 525.177 1559.8 544.448 1523.86 555.125L1666.05 796.922V802H1614.88L1477.38 565.281ZM1312.14 524.266H1459.41C1499.77 524.266 1532.19 512.807 1556.67 489.891C1581.15 466.974 1593.39 437.286 1593.39 400.828C1593.39 360.724 1580.63 329.604 1555.11 307.469C1529.59 285.333 1493.78 274.266 1447.69 274.266H1312.14V524.266ZM1735.97 584.422C1735.97 543.797 1743.78 507.208 1759.41 474.656C1775.29 442.104 1797.56 416.844 1826.2 398.875C1855.11 380.646 1887.79 371.531 1924.25 371.531C1980.5 371.531 2026.07 391.323 2060.97 430.906C2095.86 470.229 2113.31 522.443 2113.31 587.547V597.312C2113.31 638.198 2105.37 675.047 2089.48 707.859C2073.86 740.411 2051.72 765.542 2023.08 783.25C1994.43 800.958 1961.75 809.812 1925.03 809.812C1869.04 809.812 1823.47 790.151 1788.31 750.828C1753.42 711.245 1735.97 658.901 1735.97 593.797V584.422ZM1782.84 597.312C1782.84 647.833 1795.86 689.37 1821.91 721.922C1848.21 754.214 1882.58 770.359 1925.03 770.359C1967.22 770.359 2001.33 754.214 2027.38 721.922C2053.68 689.37 2066.83 646.531 2066.83 593.406V584.422C2066.83 552.13 2060.84 522.573 2048.86 495.75C2036.88 468.927 2020.08 448.224 1998.47 433.641C1976.85 418.797 1952.11 411.375 1924.25 411.375C1882.58 411.375 1848.6 427.781 1822.3 460.594C1795.99 493.146 1782.84 535.854 1782.84 588.719V597.312ZM2482.06 748.484C2453.94 789.37 2409.02 809.812 2347.3 809.812C2302.24 809.812 2268 796.792 2244.56 770.75C2221.12 744.448 2209.15 705.646 2208.62 654.344V379.344H2255.11V648.484C2255.11 728.953 2287.66 769.188 2352.77 769.188C2420.47 769.188 2463.31 741.193 2481.28 685.203V379.344H2528.16V802H2482.84L2482.06 748.484ZM2722.69 271.141V379.344H2810.19V417.625H2722.69V699.266C2722.69 722.703 2726.85 740.151 2735.19 751.609C2743.78 763.068 2757.97 768.797 2777.77 768.797C2785.58 768.797 2798.21 767.495 2815.66 764.891L2817.61 803.172C2805.37 807.599 2788.7 809.812 2767.61 809.812C2735.58 809.812 2712.27 800.568 2697.69 782.078C2683.1 763.328 2675.81 735.854 2675.81 699.656V417.625H2598.08V379.344H2675.81V271.141H2722.69ZM3070.73 809.812C3034.8 809.812 3002.24 800.958 2973.08 783.25C2944.17 765.542 2921.65 740.932 2905.5 709.422C2889.35 677.651 2881.28 642.104 2881.28 602.781V585.984C2881.28 545.359 2889.09 508.771 2904.72 476.219C2920.6 443.667 2942.61 418.146 2970.73 399.656C2998.86 380.906 3029.33 371.531 3062.14 371.531C3113.44 371.531 3154.07 389.109 3184.02 424.266C3214.22 459.161 3229.33 506.948 3229.33 567.625V593.797H2927.77V602.781C2927.77 650.698 2941.44 690.672 2968.78 722.703C2996.39 754.474 3031.02 770.359 3072.69 770.359C3097.69 770.359 3119.69 765.802 3138.7 756.688C3157.97 747.573 3175.42 732.99 3191.05 712.938L3220.34 735.203C3185.97 784.943 3136.1 809.812 3070.73 809.812ZM3062.14 411.375C3026.98 411.375 2997.3 424.266 2973.08 450.047C2949.12 475.828 2934.54 510.464 2929.33 553.953H3182.84V548.875C3181.54 508.25 3169.95 475.177 3148.08 449.656C3126.2 424.135 3097.56 411.375 3062.14 411.375ZM3515.66 419.188C3505.76 417.365 3495.21 416.453 3484.02 416.453C3454.85 416.453 3430.11 424.656 3409.8 441.062C3389.74 457.208 3375.42 480.776 3366.83 511.766V802H3320.34V379.344H3366.05L3366.83 446.531C3391.57 396.531 3431.28 371.531 3485.97 371.531C3498.99 371.531 3509.28 373.224 3516.83 376.609L3515.66 419.188Z" fill="#015292"/>
</svg>
